<svg width="181" height="40" viewBox="0 0 181 40" fill="none" xmlns="http://www.w3.org/2000/svg">
<g clip-path="url(#clip0_2_35009)">
<path d="M64.2727 22.982L63.2037 26.0074H63.1146C62.9364 25.3252 62.6098 24.287 62.0753 23.0413L56.3442 8.65575H50.7319V31.5836H54.4438V17.4354C54.4438 16.5455 54.4438 15.5371 54.4141 14.2913C54.3844 13.6684 54.325 13.1939 54.2953 12.8379H54.3844C54.5625 13.7278 54.7704 14.3803 54.9189 14.7956L61.808 31.5243H64.4212L71.2509 14.6473C71.3994 14.2617 71.5479 13.4905 71.6964 12.8379H71.7854C71.6964 14.5286 71.637 16.0413 71.6073 16.9608V31.4946H75.5567V8.59643H70.1522L64.2727 22.982ZM79.2982 15.0625H83.1585V31.4946H79.2982V15.0625ZM81.258 8.12186C80.6047 8.12186 80.0702 8.35914 79.6248 8.7744C79.1794 9.18965 78.9418 9.72355 78.9418 10.3761C78.9418 10.999 79.1794 11.5329 79.6248 11.9481C80.0702 12.3634 80.6047 12.571 81.258 12.571C81.9113 12.571 82.4755 12.3337 82.8912 11.9481C83.3366 11.5329 83.5742 10.999 83.5742 10.3761C83.5742 9.75321 83.3366 9.21931 82.8912 8.7744C82.5052 8.35914 81.941 8.12186 81.258 8.12186ZM96.8477 14.9142C96.135 14.7659 95.3927 14.6769 94.68 14.6769C92.928 14.6769 91.3245 15.0625 89.9882 15.8337C88.652 16.6049 87.583 17.6727 86.9 19.0074C86.1873 20.3718 85.831 21.9438 85.831 23.7531C85.831 25.3252 86.1873 26.7192 86.8703 27.9947C87.5533 29.2404 88.5035 30.2489 89.7804 30.9311C90.9979 31.6133 92.4232 31.9692 94.0267 31.9692C95.8678 31.9692 97.4416 31.5836 98.6888 30.8718L98.7185 30.8421V27.2828L98.57 27.4014C98.0058 27.8167 97.3525 28.1726 96.6992 28.3802C96.0163 28.6175 95.3927 28.7362 94.8582 28.7362C93.3141 28.7362 92.0966 28.2913 91.2354 27.3125C90.3446 26.3633 89.8992 25.0582 89.8992 23.4269C89.8992 21.7362 90.3446 20.4015 91.2651 19.4227C92.1857 18.4438 93.4031 17.9396 94.8879 17.9396C96.135 17.9396 97.4119 18.3549 98.57 19.1854L98.7185 19.304V15.5371L98.6888 15.5074C98.184 15.2998 97.6198 15.0625 96.8477 14.9142ZM109.587 14.7956C108.636 14.7956 107.746 15.0922 106.974 15.715C106.32 16.2489 105.875 17.0201 105.489 17.9396H105.459V15.0625H101.599V31.4946H105.459V23.1006C105.459 21.6769 105.756 20.4904 106.409 19.6303C107.063 18.7405 107.894 18.2955 108.904 18.2955C109.26 18.2955 109.616 18.3845 110.062 18.4438C110.478 18.5625 110.775 18.6811 110.982 18.8294L111.131 18.9481V15.0922L111.042 15.0625C110.775 14.8845 110.24 14.7956 109.587 14.7956ZM120.099 14.7066C117.396 14.7066 115.229 15.5074 113.714 17.0794C112.17 18.6515 111.428 20.8167 111.428 23.5455C111.428 26.0964 112.2 28.1726 113.685 29.6853C115.169 31.1684 117.189 31.9396 119.713 31.9396C122.355 31.9396 124.464 31.1387 125.978 29.537C127.522 27.9353 128.265 25.7997 128.265 23.1599C128.265 20.5498 127.552 18.4735 126.097 16.9608C124.701 15.4481 122.652 14.7066 120.099 14.7066ZM123.187 27.3421C122.474 28.2616 121.346 28.7065 119.95 28.7065C118.555 28.7065 117.426 28.2616 116.624 27.2828C115.823 26.3633 115.437 25.0286 115.437 23.3379C115.437 21.5879 115.852 20.2532 116.624 19.304C117.426 18.3549 118.525 17.8803 119.92 17.8803C121.286 17.8803 122.355 18.3252 123.127 19.2447C123.9 20.1642 124.315 21.4989 124.315 23.2489C124.256 25.0286 123.929 26.4226 123.187 27.3421ZM136.876 21.8845C135.659 21.3803 134.887 20.9947 134.53 20.6684C134.233 20.3718 134.085 19.9566 134.085 19.4227C134.085 18.9777 134.263 18.5328 134.708 18.2362C135.154 17.9396 135.659 17.7913 136.401 17.7913C137.054 17.7913 137.737 17.9099 138.391 18.0879C139.044 18.2659 139.638 18.5328 140.113 18.8888L140.261 19.0074V15.3888L140.172 15.3591C139.727 15.1811 139.133 15.0032 138.42 14.8549C137.708 14.7362 137.054 14.6769 136.52 14.6769C134.679 14.6769 133.164 15.1218 131.976 16.1006C130.789 17.0201 130.224 18.2659 130.224 19.7193C130.224 20.4904 130.343 21.1726 130.611 21.7362C130.878 22.2998 131.264 22.8337 131.798 23.2786C132.333 23.6938 133.105 24.1684 134.174 24.6133C135.065 24.9989 135.748 25.2955 136.163 25.5328C136.579 25.7701 136.846 26.037 137.054 26.2447C137.203 26.4819 137.292 26.7786 137.292 27.1641C137.292 28.2616 136.46 28.7955 134.768 28.7955C134.114 28.7955 133.432 28.6769 132.63 28.4099C131.828 28.143 131.086 27.7574 130.462 27.3125L130.314 27.1938V30.9607L130.403 30.9904C130.967 31.2574 131.65 31.4353 132.481 31.6429C133.313 31.7912 134.055 31.9099 134.708 31.9099C136.698 31.9099 138.331 31.465 139.489 30.4862C140.677 29.537 141.301 28.3209 141.301 26.7489C141.301 25.6514 141.004 24.6726 140.35 23.9311C139.489 23.2192 138.42 22.4777 136.876 21.8845ZM151.486 14.7066C148.784 14.7066 146.616 15.5074 145.102 17.0794C143.587 18.6515 142.815 20.8167 142.815 23.5455C142.815 26.0964 143.587 28.1726 145.072 29.6853C146.557 31.1684 148.576 31.9396 151.1 31.9396C153.743 31.9396 155.851 31.1387 157.365 29.537C158.91 27.9353 159.652 25.7997 159.652 23.1599C159.652 20.5498 158.939 18.4735 157.484 16.9608C156.089 15.4481 154.04 14.7066 151.486 14.7066ZM154.544 27.3421C153.832 28.2616 152.703 28.7065 151.308 28.7065C149.882 28.7065 148.784 28.2616 147.982 27.2828C147.18 26.3633 146.794 25.0286 146.794 23.3379C146.794 21.5879 147.21 20.2532 147.982 19.304C148.784 18.3549 149.882 17.8803 151.278 17.8803C152.614 17.8803 153.713 18.3252 154.485 19.2447C155.257 20.1642 155.673 21.4989 155.673 23.2489C155.673 25.0286 155.287 26.4226 154.544 27.3421ZM180.29 18.2362V15.0625H176.4V10.1981L176.281 10.2278L172.599 11.3252L172.51 11.3549V15.0625H166.69V12.9862C166.69 12.0371 166.927 11.2956 167.343 10.821C167.759 10.3464 168.382 10.1091 169.154 10.1091C169.689 10.1091 170.253 10.2278 170.876 10.4947L171.025 10.5837V7.23203L170.936 7.20237C170.401 7.02441 169.689 6.90576 168.768 6.90576C167.61 6.90576 166.6 7.17271 165.68 7.61762C164.759 8.12186 164.076 8.80406 163.572 9.72355C163.067 10.6134 162.8 11.6218 162.8 12.7786V15.0625H160.097V18.2066H162.8V31.4946H166.69V18.2362H172.51V26.6896C172.51 30.1599 174.143 31.9099 177.409 31.9099C177.944 31.9099 178.508 31.8209 179.042 31.7319C179.607 31.6133 180.022 31.465 180.26 31.3463L180.29 31.3167V28.143L180.141 28.2616C179.904 28.4099 179.696 28.5285 179.339 28.6175C179.042 28.7065 178.775 28.7362 178.567 28.7362C177.795 28.7362 177.261 28.5582 176.875 28.1133C176.518 27.698 176.34 27.0158 176.34 26.0074V18.2362H180.29Z" fill="#737373"/>
<path d="M0.963684 0.944092H19.1665V19.1262H0.963684V0.944092Z" fill="#F25022"/>
<path d="M21.0669 0.944092H39.2697V19.1262H21.0669V0.944092Z" fill="#7FBA00"/>
<path d="M0.963684 21.0242H19.1665V39.2063H0.963684V21.0242Z" fill="#00A4EF"/>
<path d="M21.0669 21.0242H39.2697V39.2063H21.0669V21.0242Z" fill="#FFB900"/>
</g>
<defs>
<clipPath id="clip0_2_35009">
<rect width="179.356" height="38.2625" fill="white" transform="translate(0.963684 0.944092)"/>
</clipPath>
</defs>
</svg>
